<?xml version="1.0" encoding="utf-8"?>
<svg xmlns="http://www.w3.org/2000/svg" xmlns:svg="http://www.w3.org/2000/svg" version="1.1" viewBox="0 0 1400 340">
	<title>The titlepage for the Standard Ebooks edition of My Brilliant Career, by Miles Franklin</title>
	<g aria-label="MY BRILLIANT CAREER">
		<path d="m 185.31871,130 h 17.59064 L 195.98537,52.807016 H 177.27192 L 160.14911,97.345029 143.02631,52.807016 H 124.31286 L 117.38888,130 h 17.59064 l 3.64913,-45.754387 h 0.46783 l 15.81287,45.286547 h 10.47953 l 15.81287,-45.286547 h 0.46783 z"/>
		<path d="m 198.12865,52.807016 28.44444,42.5731 V 130 h 17.59065 V 95.380116 l 28.44444,-42.5731 h -21.1462 L 235.36841,77.508771 219.27485,52.807016 Z"/>
		<path d="M 311.0307,52.807016 V 130 h 29.28655 c 16,0 25.26315,-8.79532 25.26315,-21.52047 0,-12.444443 -6.83041,-17.777776 -16.46783,-19.461987 6.5497,-3.368421 9.63742,-9.450292 9.63742,-16.561404 0,-14.690058 -10.47953,-19.649123 -23.76608,-19.649123 z m 17.59064,30.222223 V 66.374268 h 1.40351 c 7.67251,0 11.6959,2.339181 11.6959,7.859649 0,6.456141 -4.11696,8.795322 -11.6959,8.795322 z m 0,33.403511 V 98.187134 h 5.52047 c 8.32748,0 12.91228,2.526316 12.91228,9.637426 0,6.08187 -4.5848,8.60819 -12.91228,8.60819 z"/>
		<path d="M 378.34794,52.807016 V 130 h 17.59064 V 99.497075 L 419.51753,130 h 22.36258 l -26.5731,-31.906433 c 9.45029,-2.994152 15.81286,-10.760234 15.81286,-22.362574 0,-15.157895 -10.8538,-22.923977 -25.16959,-22.923977 z m 17.59064,34.245615 V 66.842104 h 2.05848 c 6.64328,0 14.5965,0.467836 14.5965,10.105263 0,9.637428 -7.95322,10.105264 -14.5965,10.105264 z"/>
		<path d="M 468.00731,52.807016 H 450.41667 V 130 h 17.59064 z"/>
		<path d="M 501.88158,52.807016 H 484.29093 V 130 h 44.16375 v -15.4386 h -26.5731 z"/>
		<path d="M 559.69591,52.807016 H 542.10526 V 130 h 44.16375 v -15.4386 h -26.5731 z"/>
		<path d="M 617.51024,52.807016 H 599.9196 V 130 h 17.59064 z"/>
		<path d="m 672.99854,52.807016 h -16.2807 L 625.55995,130 h 18.90058 l 5.7076,-15.4386 h 29.38012 L 685.25585,130 h 18.90059 z m 0.56141,46.31579 h -17.40351 l 8.60818,-22.45614 h 0.18714 z"/>
		<path d="m 729.66667,82.093566 h 0.18714 L 760.54387,130 h 17.59064 V 52.807016 h -17.59064 v 47.906434 h -0.18714 L 729.66667,52.807016 H 712.07603 V 130 h 17.59064 z"/>
		<path d="M 784.94442,68.245613 H 803.2836 V 130 h 17.59064 V 68.245613 h 18.33919 V 52.807016 h -54.26901 z"/>
		<path d="m 919.28511,114.09357 c -17.68421,0 -25.45029,-12.35088 -25.45029,-22.736846 0,-10.292397 7.76608,-22.643275 25.45029,-22.643275 8.98246,0 15.15789,4.77193 15.15789,4.77193 l 7.48538,-14.97076 c 0,0 -8.60818,-7.111112 -25.35672,-7.111112 -21.89474,0 -41.82456,17.964913 -41.82456,40.140352 0,22.081871 20.02339,39.859651 41.82456,39.859651 16.74854,0 25.35672,-7.11111 25.35672,-7.11111 L 934.443,109.32164 c 0,0 -6.17543,4.77193 -15.15789,4.77193 z"/>
		<path d="m 992.95466,52.807016 h -16.2807 L 945.51606,130 h 18.90059 l 5.7076,-15.4386 h 29.38012 L 1005.212,130 h 18.9006 z m 0.5614,46.31579 h -17.40351 l 8.60819,-22.45614 h 0.18713 z"/>
		<path d="M 1032.0321,52.807016 V 130 h 17.5907 V 99.497075 L 1073.2017,130 h 22.3626 l -26.5731,-31.906433 c 9.4503,-2.994152 15.8129,-10.760234 15.8129,-22.362574 0,-15.157895 -10.8538,-22.923977 -25.1696,-22.923977 z m 17.5907,34.245615 V 66.842104 h 2.0585 c 6.6432,0 14.5965,0.467836 14.5965,10.105263 0,9.637428 -7.9533,10.105264 -14.5965,10.105264 z"/>
		<path d="m 1148.2646,52.807016 h -44.1637 V 130 h 44.1637 v -15.4386 h -26.5731 V 99.029239 h 25.4503 V 83.590642 h -25.4503 V 68.245613 h 26.5731 z"/>
		<path d="m 1207.5409,52.807016 h -44.1637 V 130 h 44.1637 v -15.4386 h -26.5731 V 99.029239 h 25.4503 V 83.590642 h -25.4503 V 68.245613 h 26.5731 z"/>
		<path d="M 1222.6535,52.807016 V 130 h 17.5907 V 99.497075 L 1263.8231,130 h 22.3626 l -26.5731,-31.906433 c 9.4503,-2.994152 15.8129,-10.760234 15.8129,-22.362574 0,-15.157895 -10.8538,-22.923977 -25.1696,-22.923977 z m 17.5907,34.245615 V 66.842104 h 2.0585 c 6.6432,0 14.5965,0.467836 14.5965,10.105263 0,9.637428 -7.9533,10.105264 -14.5965,10.105264 z"/>
	</g>
	<g aria-label="MILES FRANKLIN">
		<path d="m 413.51206,290 h 13.19299 l -5.19299,-57.89474 h -14.03508 l -12.84211,33.40351 -12.8421,-33.40351 H 367.75768 L 362.5647,290 h 13.19298 l 2.73684,-34.31579 h 0.35088 l 11.85965,33.96491 h 7.85965 l 11.85964,-33.96491 h 0.35088 z"/>
		<path d="M 450.18311,232.10526 H 436.99013 V 290 h 13.19298 z"/>
		<path d="M 476.83881,232.10526 H 463.64583 V 290 h 33.12281 v -11.57895 h -19.92983 z"/>
		<path d="M 541.37938,232.10526 H 508.25657 V 290 h 33.12281 v -11.57895 h -19.92983 v -11.64912 h 19.08772 v -11.57895 h -19.08772 v -11.50877 h 19.92983 z"/>
		<path d="m 575.29715,231.05263 c -9.33333,0 -18.87719,6.8772 -18.87719,17.68421 0,6.03509 4.07017,11.4386 11.01754,14.8772 6.87719,3.43859 13.05263,5.33333 13.05263,9.54385 0,5.40351 -5.47368,5.68422 -8.35088,5.68422 -6.45614,0 -14.17543,-6.52632 -14.17543,-6.52632 l -6.59649,11.08772 c 0,0 8.21052,7.64912 21.75438,7.64912 11.29825,0 21.82456,-4.8421 21.82456,-18.66666 0,-7.57895 -7.08772,-13.05264 -13.54386,-15.78948 -6.59649,-2.80702 -12.07017,-5.12281 -12.07017,-8.35088 0,-3.15789 2.38596,-5.19298 6.87719,-5.19298 5.96491,0 11.7193,4 11.7193,4 l 5.33333,-10.52631 c 0,0 -7.43859,-5.47369 -17.96491,-5.47369 z"/>
		<path d="M 663.77521,232.10526 H 630.30152 V 290 h 13.19299 v -23.22807 h 18.73684 v -11.57895 h -18.73684 v -11.50877 h 20.2807 z"/>
		<path d="M 675.04933,232.10526 V 290 h 13.19298 V 267.12281 L 705.92652,290 h 16.77193 l -19.92983,-23.92982 c 7.08772,-2.24562 11.85965,-8.07018 11.85965,-16.77193 0,-11.36842 -8.14035,-17.19299 -18.87719,-17.19299 z m 13.19298,25.68421 v -15.15789 h 1.54386 c 4.98245,0 10.94737,0.35088 10.94737,7.57895 0,7.22807 -5.96492,7.57894 -10.94737,7.57894 z"/>
		<path d="M 759.75438,232.10526 H 747.54385 L 724.17543,290 h 14.17544 l 4.2807,-11.57895 h 22.03509 L 768.94736,290 h 14.17544 z m 0.42105,34.73685 H 747.1228 L 753.57894,250 h 0.14035 z"/>
		<path d="m 803.50549,254.07018 h 0.14035 L 826.66339,290 h 13.19298 v -57.89474 h -13.19298 v 35.92983 h -0.14035 L 803.50549,232.10526 H 790.31251 V 290 h 13.19298 z"/>
		<path d="m 905.99122,290 -26.94736,-30.45614 23.29824,-27.4386 h -16 l -19.85965,23.64913 V 232.10526 H 853.28947 V 290 h 13.19298 V 265.4386 L 887.81579,290 Z"/>
		<path d="M 926.7182,232.10526 H 913.52522 V 290 h 33.1228 V 278.42105 H 926.7182 Z"/>
		<path d="M 971.32892,232.10526 H 958.13594 V 290 h 13.19298 z"/>
		<path d="m 997.98462,254.07018 h 0.14035 L 1021.1425,290 h 13.193 v -57.89474 h -13.193 v 35.92983 h -0.1403 L 997.98462,232.10526 H 984.79164 V 290 h 13.19298 z"/>
	</g>
</svg>
